<!-- SVG Icon for Gekko Browser -->
<svg xmlns="http://www.w3.org/2000/svg" width="512" height="512" viewBox="0 0 512 512">
  <defs>
    <linearGradient id="gradient" x1="0%" y1="0%" x2="100%" y2="100%">
      <stop offset="0%" stop-color="#8ab4f8"/>
      <stop offset="100%" stop-color="#b388ff"/>
    </linearGradient>
  </defs>
  <rect width="512" height="512" rx="100" fill="#202124"/>
  <circle cx="256" cy="256" r="180" fill="url(#gradient)" opacity="0.9"/>
  <path d="M256 120 C180 120 120 180 120 256 C120 332 180 392 256 392 C332 392 392 332 392 256 C392 180 332 120 256 120 Z M256 160 C310 160 352 202 352 256 C352 310 310 352 256 352 C202 352 160 310 160 256 C160 202 202 160 256 160 Z" fill="#202124"/>
  <path d="M256 140 L296 200 L216 200 Z" fill="#ffffff"/>
  <path d="M336 216 L336 296 L276 256 Z" fill="#ffffff"/>
  <path d="M216 312 L296 312 L256 372 Z" fill="#ffffff"/>
  <path d="M176 296 L176 216 L236 256 Z" fill="#ffffff"/>
</svg>
